# xmcd
#
# Track frame offsets: 
#        150
#        14587
#        36638
#        49348
#        61334
#        81018
#        98848
#        122749
#        137404
#        152337
#        167473
#        175650
#        191107
#        210652
#        245124
#
# Disc length: 3527 seconds
#
# Revision: 0
# Processed by: cddbd v1.5.2PL0 Copyright (c) Steve Scherf et al.
# Submitted via: ExactAudioCopy v0.99pb5
#
DISCID=cb0dc50f
DTITLE=Various Artist - The Blues CD5 - UK Bluesplayers - 1
DYEAR=2009
DGENRE=Blues
TTITLE0=Alexis Korner's Skiffle Group - County Jail
TTITLE1=Savoy Brown - Black Night
TTITLE2=Cream - Strange Brew
TTITLE3=Them - I Put A Spell On You
TTITLE4=Yardbirds - New York City Blues
TTITLE5=John Mayall - All My Life
TTITLE6=Eric Clapton - Crossroads (Live)
TTITLE7=The Animals - Boom Boom
TTITLE8=Steamhammer - Junior's Wailing
TTITLE9=Mick Taylor - Slow Blues
TTITLE10=Duffy Power - Lawdy Miss Clawdy
TTITLE11=John Dummer Blues Band - Down Home Girl
TTITLE12=Ian Hunter - How's Your House
TTITLE13=Paul Lamb and The King Snakes - Blackjack Game
TTITLE14=Rory Gallagher - Messin'  With The Kid (Live)
EXTD=
EXTT0=
EXTT1=
EXTT2=
EXTT3=
EXTT4=
EXTT5=
EXTT6=
EXTT7=
EXTT8=
EXTT9=
EXTT10=
EXTT11=
EXTT12=
EXTT13=
EXTT14=
PLAYORDER=
